<svg xmlns="http://www.w3.org/2000/svg" xmlns:xlink="http://www.w3.org/1999/xlink" width="370" zoomAndPan="magnify" viewBox="0 0 277.5 89.999999" height="120" preserveAspectRatio="xMidYMid meet" version="1.0"><defs><g/><clipPath id="f11b9b800e"><path d="M 2.566406 7.464844 L 60.960938 7.464844 L 60.960938 66.28125 L 2.566406 66.28125 Z M 2.566406 7.464844 " clip-rule="nonzero"/></clipPath><clipPath id="acb37c5f3e"><path d="M 25.195312 61.894531 L 59.089844 61.894531 L 59.089844 82.324219 L 25.195312 82.324219 Z M 25.195312 61.894531 " clip-rule="nonzero"/></clipPath></defs><g clip-path="url(#f11b9b800e)"><path fill="#7366ff" d="M 21.914062 60.742188 C 14.351562 56.46875 9.246094 48.355469 9.246094 39.046875 C 9.246094 25.296875 20.394531 14.144531 34.148438 14.144531 C 41.75 14.144531 48.554688 17.554688 53.121094 22.921875 L 61.308594 22.921875 C 55.800781 13.667969 45.699219 7.464844 34.148438 7.464844 C 16.707031 7.464844 2.566406 21.605469 2.566406 39.046875 C 2.566406 50.613281 8.78125 60.722656 18.050781 66.226562 L 21.914062 60.742188 " fill-opacity="1" fill-rule="nonzero"/></g><g clip-path="url(#acb37c5f3e)"><path fill="#7366ff" d="M 41.527344 62.835938 C 41.25 62.921875 40.972656 63.003906 40.695312 63.082031 L 25.230469 69.351562 C 26.285156 69.664062 27.363281 69.917969 28.457031 70.121094 L 59.050781 82.527344 L 44.554688 61.960938 C 43.570312 62.316406 42.558594 62.613281 41.527344 62.835938 " fill-opacity="1" fill-rule="nonzero"/></g><path fill="#4c5270" d="M 36.496094 56.085938 C 45.503906 56.085938 52.808594 48.785156 52.808594 39.777344 C 52.808594 30.769531 45.503906 23.464844 36.496094 23.464844 C 31.519531 23.464844 27.0625 25.695312 24.070312 29.214844 L 18.707031 29.214844 C 22.3125 23.152344 28.929688 19.089844 36.496094 19.089844 C 47.921875 19.089844 57.183594 28.351562 57.183594 39.777344 C 57.183594 49.929688 49.871094 58.371094 40.222656 60.128906 L 20.1875 68.253906 L 29.777344 54.644531 C 31.828125 55.570312 34.101562 56.085938 36.496094 56.085938 " fill-opacity="1" fill-rule="nonzero"/><path fill="#7366ff" d="M 30.300781 39.046875 C 30.300781 40.527344 29.101562 41.730469 27.621094 41.730469 C 26.140625 41.730469 24.9375 40.527344 24.9375 39.046875 C 24.9375 37.566406 26.140625 36.367188 27.621094 36.367188 C 29.101562 36.367188 30.300781 37.566406 30.300781 39.046875 " fill-opacity="1" fill-rule="nonzero"/><path fill="#7366ff" d="M 38.371094 39.046875 C 38.371094 40.527344 37.171875 41.730469 35.691406 41.730469 C 34.210938 41.730469 33.011719 40.527344 33.011719 39.046875 C 33.011719 37.566406 34.210938 36.367188 35.691406 36.367188 C 37.171875 36.367188 38.371094 37.566406 38.371094 39.046875 " fill-opacity="1" fill-rule="nonzero"/><path fill="#7366ff" d="M 46.445312 39.046875 C 46.445312 40.527344 45.246094 41.730469 43.765625 41.730469 C 42.285156 41.730469 41.085938 40.527344 41.085938 39.046875 C 41.085938 37.566406 42.285156 36.367188 43.765625 36.367188 C 45.246094 36.367188 46.445312 37.566406 46.445312 39.046875 " fill-opacity="1" fill-rule="nonzero"/><g fill="#7366ff" fill-opacity="1"><g transform="translate(71.994001, 43.105525)"><g><path d="M 15.765625 0 L 15.765625 -9.609375 L 10.90625 -9.609375 L 10.90625 0 L 1.953125 0 L 1.953125 -26.328125 L 10.90625 -26.328125 L 10.90625 -16.765625 L 15.765625 -16.765625 L 15.765625 -26.328125 L 24.71875 -26.328125 L 24.71875 0 Z M 15.765625 0 "/></g></g></g><g fill="#7366ff" fill-opacity="1"><g transform="translate(99.967602, 43.105525)"><g><path d="M 1.953125 0 L 1.953125 -26.328125 L 21.234375 -26.328125 L 21.234375 -19.9375 L 10.875 -19.9375 L 10.875 -16.421875 L 19.4375 -16.421875 L 19.4375 -10.171875 L 10.875 -10.171875 L 10.875 -6.390625 L 21.234375 -6.390625 L 21.234375 0 Z M 1.953125 0 "/></g></g></g><g fill="#7366ff" fill-opacity="1"><g transform="translate(124.344098, 43.105525)"><g><path d="M 1.953125 0 L 1.953125 -26.328125 L 10.90625 -26.328125 L 10.90625 -6.734375 L 19.703125 -6.734375 L 19.703125 0 Z M 1.953125 0 "/></g></g></g><g fill="#7366ff" fill-opacity="1"><g transform="translate(146.041893, 43.105525)"><g><path d="M 1.953125 -26.328125 L 15.453125 -26.328125 C 17.722656 -26.328125 19.4375 -26 20.59375 -25.34375 C 21.757812 -24.695312 22.539062 -23.734375 22.9375 -22.453125 C 23.332031 -21.179688 23.53125 -19.410156 23.53125 -17.140625 C 23.53125 -15.023438 23.34375 -13.328125 22.96875 -12.046875 C 22.601562 -10.773438 21.835938 -9.78125 20.671875 -9.0625 C 19.515625 -8.351562 17.773438 -8 15.453125 -8 L 10.90625 -8 L 10.90625 0 L 1.953125 0 Z M 12.09375 -14.234375 C 12.882812 -14.234375 13.4375 -14.289062 13.75 -14.40625 C 14.070312 -14.519531 14.285156 -14.757812 14.390625 -15.125 C 14.492188 -15.5 14.546875 -16.171875 14.546875 -17.140625 C 14.546875 -18.109375 14.492188 -18.789062 14.390625 -19.1875 C 14.285156 -19.582031 14.078125 -19.832031 13.765625 -19.9375 C 13.460938 -20.039062 12.90625 -20.09375 12.09375 -20.09375 L 10.90625 -20.09375 L 10.90625 -14.234375 Z M 12.09375 -14.234375 "/></g></g></g><g fill="#4c5270" fill-opacity="1"><g transform="translate(171.684963, 43.105525)"><g><path d="M 1.953125 -26.328125 L 11.703125 -26.328125 C 15.765625 -26.328125 18.632812 -25.960938 20.3125 -25.234375 C 22 -24.503906 23.039062 -23.316406 23.4375 -21.671875 C 23.832031 -20.023438 24.03125 -17.1875 24.03125 -13.15625 C 24.03125 -9.132812 23.832031 -6.300781 23.4375 -4.65625 C 23.039062 -3.007812 22 -1.820312 20.3125 -1.09375 C 18.632812 -0.363281 15.765625 0 11.703125 0 L 1.953125 0 Z M 11.828125 -6.390625 C 12.972656 -6.390625 13.742188 -6.503906 14.140625 -6.734375 C 14.535156 -6.960938 14.78125 -7.476562 14.875 -8.28125 C 14.976562 -9.082031 15.03125 -10.695312 15.03125 -13.125 C 15.03125 -15.601562 14.976562 -17.242188 14.875 -18.046875 C 14.78125 -18.847656 14.539062 -19.363281 14.15625 -19.59375 C 13.769531 -19.820312 12.992188 -19.9375 11.828125 -19.9375 L 10.90625 -19.9375 L 10.90625 -6.390625 Z M 11.828125 -6.390625 "/></g></g></g><g fill="#4c5270" fill-opacity="1"><g transform="translate(198.62535, 43.105525)"><g><path d="M 1.953125 0 L 1.953125 -26.328125 L 21.234375 -26.328125 L 21.234375 -19.9375 L 10.875 -19.9375 L 10.875 -16.421875 L 19.4375 -16.421875 L 19.4375 -10.171875 L 10.875 -10.171875 L 10.875 -6.390625 L 21.234375 -6.390625 L 21.234375 0 Z M 1.953125 0 "/></g></g></g><g fill="#4c5270" fill-opacity="1"><g transform="translate(223.001845, 43.105525)"><g><path d="M 12.25 0.3125 C 10.613281 0.3125 8.832031 0.242188 6.90625 0.109375 C 4.976562 -0.015625 3.351562 -0.175781 2.03125 -0.375 L 2.03125 -6.46875 C 5.144531 -6.207031 7.601562 -6.078125 9.40625 -6.078125 C 10.507812 -6.078125 11.296875 -6.097656 11.765625 -6.140625 C 12.234375 -6.179688 12.5625 -6.265625 12.75 -6.390625 C 12.925781 -6.515625 13.03125 -6.671875 13.0625 -6.859375 C 13.101562 -7.054688 13.125 -7.375 13.125 -7.8125 C 13.125 -8.320312 13.046875 -8.679688 12.890625 -8.890625 C 12.742188 -9.109375 12.460938 -9.257812 12.046875 -9.34375 C 11.640625 -9.4375 10.851562 -9.5625 9.6875 -9.71875 L 5.203125 -10.296875 C 3.722656 -10.472656 2.695312 -11.242188 2.125 -12.609375 C 1.550781 -13.972656 1.265625 -15.957031 1.265625 -18.5625 C 1.265625 -20.75 1.707031 -22.4375 2.59375 -23.625 C 3.488281 -24.8125 4.679688 -25.609375 6.171875 -26.015625 C 7.671875 -26.429688 9.503906 -26.640625 11.671875 -26.640625 C 13.273438 -26.640625 14.925781 -26.5625 16.625 -26.40625 C 18.320312 -26.25 19.679688 -26.054688 20.703125 -25.828125 L 20.703125 -19.828125 C 19.703125 -19.953125 18.488281 -20.050781 17.0625 -20.125 C 15.632812 -20.207031 14.320312 -20.25 13.125 -20.25 C 11.851562 -20.25 11.0625 -20.15625 10.75 -19.96875 C 10.363281 -19.71875 10.171875 -19.320312 10.171875 -18.78125 C 10.171875 -18.300781 10.21875 -17.957031 10.3125 -17.75 C 10.40625 -17.550781 10.582031 -17.40625 10.84375 -17.3125 C 11.113281 -17.226562 11.609375 -17.132812 12.328125 -17.03125 L 16.34375 -16.53125 C 17.507812 -16.375 18.484375 -16.101562 19.265625 -15.71875 C 20.046875 -15.34375 20.691406 -14.65625 21.203125 -13.65625 C 21.765625 -12.613281 22.046875 -10.90625 22.046875 -8.53125 C 22.046875 -5.976562 21.632812 -4.0625 20.8125 -2.78125 C 20 -1.507812 18.898438 -0.675781 17.515625 -0.28125 C 16.140625 0.113281 14.382812 0.3125 12.25 0.3125 Z M 12.25 0.3125 "/></g></g></g><g fill="#4c5270" fill-opacity="1"><g transform="translate(247.607941, 43.105525)"><g><path d="M 16.875 0 L 11.28125 -10.25 L 10.90625 -10.25 L 10.90625 0 L 1.953125 0 L 1.953125 -26.328125 L 10.90625 -26.328125 L 10.90625 -16.5 L 11.28125 -16.5 L 16.984375 -26.328125 L 26.515625 -26.328125 L 18.59375 -13.96875 L 26.640625 0 Z M 16.875 0 "/></g></g></g><g fill="#7b7b7b" fill-opacity="1"><g transform="translate(122.70856, 63.462679)"><g><path d="M 3.984375 0.078125 C 3.316406 0.078125 2.710938 -0.0664062 2.171875 -0.359375 C 1.640625 -0.648438 1.21875 -1.054688 0.90625 -1.578125 C 0.601562 -2.097656 0.453125 -2.675781 0.453125 -3.3125 C 0.453125 -3.945312 0.601562 -4.519531 0.90625 -5.03125 C 1.21875 -5.550781 1.640625 -5.957031 2.171875 -6.25 C 2.710938 -6.539062 3.316406 -6.6875 3.984375 -6.6875 C 4.640625 -6.6875 5.234375 -6.539062 5.765625 -6.25 C 6.304688 -5.957031 6.726562 -5.550781 7.03125 -5.03125 C 7.332031 -4.519531 7.484375 -3.945312 7.484375 -3.3125 C 7.484375 -2.664062 7.332031 -2.082031 7.03125 -1.5625 C 6.726562 -1.050781 6.304688 -0.648438 5.765625 -0.359375 C 5.234375 -0.0664062 4.640625 0.078125 3.984375 0.078125 Z M 3.984375 -0.765625 C 4.460938 -0.765625 4.894531 -0.875 5.28125 -1.09375 C 5.675781 -1.3125 5.984375 -1.613281 6.203125 -2 C 6.429688 -2.394531 6.546875 -2.832031 6.546875 -3.3125 C 6.546875 -3.789062 6.429688 -4.222656 6.203125 -4.609375 C 5.984375 -4.992188 5.675781 -5.296875 5.28125 -5.515625 C 4.894531 -5.734375 4.460938 -5.84375 3.984375 -5.84375 C 3.492188 -5.84375 3.050781 -5.734375 2.65625 -5.515625 C 2.257812 -5.296875 1.953125 -4.992188 1.734375 -4.609375 C 1.515625 -4.222656 1.40625 -3.789062 1.40625 -3.3125 C 1.40625 -2.832031 1.515625 -2.394531 1.734375 -2 C 1.953125 -1.613281 2.257812 -1.3125 2.65625 -1.09375 C 3.050781 -0.875 3.492188 -0.765625 3.984375 -0.765625 Z M 3.984375 -0.765625 "/></g></g></g><g fill="#7b7b7b" fill-opacity="1"><g transform="translate(131.888299, 63.462679)"><g><path d="M 6.6875 -6.609375 L 6.6875 0 L 5.90625 0 L 1.9375 -4.9375 L 1.9375 0 L 1 0 L 1 -6.609375 L 1.765625 -6.609375 L 5.734375 -1.6875 L 5.734375 -6.609375 Z M 6.6875 -6.609375 "/></g></g></g><g fill="#7b7b7b" fill-opacity="1"><g transform="translate(140.80332, 63.462679)"><g><path d="M 1 -6.609375 L 1.9375 -6.609375 L 1.9375 -0.828125 L 5.515625 -0.828125 L 5.515625 0 L 1 0 Z M 1 -6.609375 "/></g></g></g><g fill="#7b7b7b" fill-opacity="1"><g transform="translate(147.657393, 63.462679)"><g><path d="M 1 -6.609375 L 1.9375 -6.609375 L 1.9375 0 L 1 0 Z M 1 -6.609375 "/></g></g></g><g fill="#7b7b7b" fill-opacity="1"><g transform="translate(151.826561, 63.462679)"><g><path d="M 6.6875 -6.609375 L 6.6875 0 L 5.90625 0 L 1.9375 -4.9375 L 1.9375 0 L 1 0 L 1 -6.609375 L 1.765625 -6.609375 L 5.734375 -1.6875 L 5.734375 -6.609375 Z M 6.6875 -6.609375 "/></g></g></g><g fill="#7b7b7b" fill-opacity="1"><g transform="translate(160.74158, 63.462679)"><g><path d="M 5.796875 -0.828125 L 5.796875 0 L 1 0 L 1 -6.609375 L 5.65625 -6.609375 L 5.65625 -5.796875 L 1.9375 -5.796875 L 1.9375 -3.765625 L 5.25 -3.765625 L 5.25 -2.953125 L 1.9375 -2.953125 L 1.9375 -0.828125 Z M 5.796875 -0.828125 "/></g></g></g><g fill="#7b7b7b" fill-opacity="1"><g transform="translate(168.314147, 63.462679)"><g/></g></g><g fill="#7b7b7b" fill-opacity="1"><g transform="translate(172.095702, 63.462679)"><g><path d="M 2.3125 -5.796875 L 0.03125 -5.796875 L 0.03125 -6.609375 L 5.515625 -6.609375 L 5.515625 -5.796875 L 3.25 -5.796875 L 3.25 0 L 2.3125 0 Z M 2.3125 -5.796875 "/></g></g></g><g fill="#7b7b7b" fill-opacity="1"><g transform="translate(178.883598, 63.462679)"><g><path d="M 1 -6.609375 L 1.9375 -6.609375 L 1.9375 0 L 1 0 Z M 1 -6.609375 "/></g></g></g><g fill="#7b7b7b" fill-opacity="1"><g transform="translate(183.052764, 63.462679)"><g><path d="M 3.953125 0.078125 C 3.285156 0.078125 2.6875 -0.0664062 2.15625 -0.359375 C 1.625 -0.648438 1.207031 -1.050781 0.90625 -1.5625 C 0.601562 -2.082031 0.453125 -2.664062 0.453125 -3.3125 C 0.453125 -3.945312 0.601562 -4.519531 0.90625 -5.03125 C 1.207031 -5.550781 1.625 -5.957031 2.15625 -6.25 C 2.695312 -6.539062 3.296875 -6.6875 3.953125 -6.6875 C 4.472656 -6.6875 4.945312 -6.597656 5.375 -6.421875 C 5.800781 -6.253906 6.164062 -6 6.46875 -5.65625 L 5.859375 -5.0625 C 5.359375 -5.582031 4.738281 -5.84375 4 -5.84375 C 3.507812 -5.84375 3.0625 -5.734375 2.65625 -5.515625 C 2.257812 -5.296875 1.953125 -4.992188 1.734375 -4.609375 C 1.515625 -4.222656 1.40625 -3.789062 1.40625 -3.3125 C 1.40625 -2.832031 1.515625 -2.394531 1.734375 -2 C 1.953125 -1.613281 2.257812 -1.3125 2.65625 -1.09375 C 3.0625 -0.875 3.507812 -0.765625 4 -0.765625 C 4.738281 -0.765625 5.359375 -1.03125 5.859375 -1.5625 L 6.46875 -0.96875 C 6.164062 -0.625 5.796875 -0.363281 5.359375 -0.1875 C 4.929688 -0.0078125 4.460938 0.078125 3.953125 0.078125 Z M 3.953125 0.078125 "/></g></g></g><g fill="#7b7b7b" fill-opacity="1"><g transform="translate(191.126385, 63.462679)"><g><path d="M 3.140625 -2.9375 L 1.9375 -1.71875 L 1.9375 0 L 1 0 L 1 -6.609375 L 1.9375 -6.609375 L 1.9375 -2.921875 L 5.53125 -6.609375 L 6.609375 -6.609375 L 3.78125 -3.640625 L 6.78125 0 L 5.6875 0 Z M 3.140625 -2.9375 "/></g></g></g><g fill="#7b7b7b" fill-opacity="1"><g transform="translate(199.162199, 63.462679)"><g><path d="M 5.796875 -0.828125 L 5.796875 0 L 1 0 L 1 -6.609375 L 5.65625 -6.609375 L 5.65625 -5.796875 L 1.9375 -5.796875 L 1.9375 -3.765625 L 5.25 -3.765625 L 5.25 -2.953125 L 1.9375 -2.953125 L 1.9375 -0.828125 Z M 5.796875 -0.828125 "/></g></g></g><g fill="#7b7b7b" fill-opacity="1"><g transform="translate(206.734765, 63.462679)"><g><path d="M 2.3125 -5.796875 L 0.03125 -5.796875 L 0.03125 -6.609375 L 5.515625 -6.609375 L 5.515625 -5.796875 L 3.25 -5.796875 L 3.25 0 L 2.3125 0 Z M 2.3125 -5.796875 "/></g></g></g><g fill="#7b7b7b" fill-opacity="1"><g transform="translate(213.522661, 63.462679)"><g/></g></g><g fill="#7b7b7b" fill-opacity="1"><g transform="translate(217.304217, 63.462679)"><g><path d="M 2.921875 0.078125 C 2.421875 0.078125 1.9375 0 1.46875 -0.15625 C 1.007812 -0.3125 0.648438 -0.507812 0.390625 -0.75 L 0.734375 -1.5 C 0.984375 -1.269531 1.304688 -1.082031 1.703125 -0.9375 C 2.097656 -0.800781 2.503906 -0.734375 2.921875 -0.734375 C 3.472656 -0.734375 3.882812 -0.820312 4.15625 -1 C 4.425781 -1.1875 4.5625 -1.4375 4.5625 -1.75 C 4.5625 -1.976562 4.484375 -2.160156 4.328125 -2.296875 C 4.179688 -2.441406 4 -2.550781 3.78125 -2.625 C 3.5625 -2.695312 3.253906 -2.785156 2.859375 -2.890625 C 2.367188 -3.003906 1.96875 -3.117188 1.65625 -3.234375 C 1.351562 -3.359375 1.09375 -3.546875 0.875 -3.796875 C 0.65625 -4.046875 0.546875 -4.378906 0.546875 -4.796875 C 0.546875 -5.148438 0.640625 -5.46875 0.828125 -5.75 C 1.015625 -6.039062 1.296875 -6.269531 1.671875 -6.4375 C 2.046875 -6.601562 2.515625 -6.6875 3.078125 -6.6875 C 3.472656 -6.6875 3.859375 -6.632812 4.234375 -6.53125 C 4.609375 -6.4375 4.929688 -6.296875 5.203125 -6.109375 L 4.890625 -5.34375 C 4.617188 -5.519531 4.320312 -5.65625 4 -5.75 C 3.6875 -5.84375 3.378906 -5.890625 3.078125 -5.890625 C 2.546875 -5.890625 2.144531 -5.789062 1.875 -5.59375 C 1.601562 -5.394531 1.46875 -5.144531 1.46875 -4.84375 C 1.46875 -4.613281 1.539062 -4.425781 1.6875 -4.28125 C 1.84375 -4.144531 2.03125 -4.035156 2.25 -3.953125 C 2.476562 -3.878906 2.785156 -3.796875 3.171875 -3.703125 C 3.671875 -3.585938 4.070312 -3.46875 4.375 -3.34375 C 4.675781 -3.226562 4.9375 -3.046875 5.15625 -2.796875 C 5.375 -2.546875 5.484375 -2.21875 5.484375 -1.8125 C 5.484375 -1.457031 5.390625 -1.132812 5.203125 -0.84375 C 5.015625 -0.5625 4.726562 -0.335938 4.34375 -0.171875 C 3.957031 -0.00390625 3.484375 0.078125 2.921875 0.078125 Z M 2.921875 0.078125 "/></g></g></g><g fill="#7b7b7b" fill-opacity="1"><g transform="translate(224.413547, 63.462679)"><g><path d="M 3.734375 0.078125 C 2.847656 0.078125 2.160156 -0.171875 1.671875 -0.671875 C 1.179688 -1.179688 0.9375 -1.910156 0.9375 -2.859375 L 0.9375 -6.609375 L 1.875 -6.609375 L 1.875 -2.890625 C 1.875 -1.472656 2.5 -0.765625 3.75 -0.765625 C 4.351562 -0.765625 4.8125 -0.9375 5.125 -1.28125 C 5.445312 -1.632812 5.609375 -2.171875 5.609375 -2.890625 L 5.609375 -6.609375 L 6.53125 -6.609375 L 6.53125 -2.859375 C 6.53125 -1.898438 6.285156 -1.171875 5.796875 -0.671875 C 5.304688 -0.171875 4.617188 0.078125 3.734375 0.078125 Z M 3.734375 0.078125 "/></g></g></g><g fill="#7b7b7b" fill-opacity="1"><g transform="translate(233.130042, 63.462679)"><g><path d="M 3.578125 -6.609375 C 4.429688 -6.609375 5.101562 -6.40625 5.59375 -6 C 6.082031 -5.59375 6.328125 -5.03125 6.328125 -4.3125 C 6.328125 -3.59375 6.082031 -3.023438 5.59375 -2.609375 C 5.101562 -2.203125 4.429688 -2 3.578125 -2 L 1.9375 -2 L 1.9375 0 L 1 0 L 1 -6.609375 Z M 3.546875 -2.828125 C 4.140625 -2.828125 4.59375 -2.953125 4.90625 -3.203125 C 5.226562 -3.460938 5.390625 -3.832031 5.390625 -4.3125 C 5.390625 -4.789062 5.226562 -5.15625 4.90625 -5.40625 C 4.59375 -5.664062 4.140625 -5.796875 3.546875 -5.796875 L 1.9375 -5.796875 L 1.9375 -2.828125 Z M 3.546875 -2.828125 "/></g></g></g><g fill="#7b7b7b" fill-opacity="1"><g transform="translate(241.19422, 63.462679)"><g><path d="M 3.578125 -6.609375 C 4.429688 -6.609375 5.101562 -6.40625 5.59375 -6 C 6.082031 -5.59375 6.328125 -5.03125 6.328125 -4.3125 C 6.328125 -3.59375 6.082031 -3.023438 5.59375 -2.609375 C 5.101562 -2.203125 4.429688 -2 3.578125 -2 L 1.9375 -2 L 1.9375 0 L 1 0 L 1 -6.609375 Z M 3.546875 -2.828125 C 4.140625 -2.828125 4.59375 -2.953125 4.90625 -3.203125 C 5.226562 -3.460938 5.390625 -3.832031 5.390625 -4.3125 C 5.390625 -4.789062 5.226562 -5.15625 4.90625 -5.40625 C 4.59375 -5.664062 4.140625 -5.796875 3.546875 -5.796875 L 1.9375 -5.796875 L 1.9375 -2.828125 Z M 3.546875 -2.828125 "/></g></g></g><g fill="#7b7b7b" fill-opacity="1"><g transform="translate(249.258398, 63.462679)"><g><path d="M 3.984375 0.078125 C 3.316406 0.078125 2.710938 -0.0664062 2.171875 -0.359375 C 1.640625 -0.648438 1.21875 -1.054688 0.90625 -1.578125 C 0.601562 -2.097656 0.453125 -2.675781 0.453125 -3.3125 C 0.453125 -3.945312 0.601562 -4.519531 0.90625 -5.03125 C 1.21875 -5.550781 1.640625 -5.957031 2.171875 -6.25 C 2.710938 -6.539062 3.316406 -6.6875 3.984375 -6.6875 C 4.640625 -6.6875 5.234375 -6.539062 5.765625 -6.25 C 6.304688 -5.957031 6.726562 -5.550781 7.03125 -5.03125 C 7.332031 -4.519531 7.484375 -3.945312 7.484375 -3.3125 C 7.484375 -2.664062 7.332031 -2.082031 7.03125 -1.5625 C 6.726562 -1.050781 6.304688 -0.648438 5.765625 -0.359375 C 5.234375 -0.0664062 4.640625 0.078125 3.984375 0.078125 Z M 3.984375 -0.765625 C 4.460938 -0.765625 4.894531 -0.875 5.28125 -1.09375 C 5.675781 -1.3125 5.984375 -1.613281 6.203125 -2 C 6.429688 -2.394531 6.546875 -2.832031 6.546875 -3.3125 C 6.546875 -3.789062 6.429688 -4.222656 6.203125 -4.609375 C 5.984375 -4.992188 5.675781 -5.296875 5.28125 -5.515625 C 4.894531 -5.734375 4.460938 -5.84375 3.984375 -5.84375 C 3.492188 -5.84375 3.050781 -5.734375 2.65625 -5.515625 C 2.257812 -5.296875 1.953125 -4.992188 1.734375 -4.609375 C 1.515625 -4.222656 1.40625 -3.789062 1.40625 -3.3125 C 1.40625 -2.832031 1.515625 -2.394531 1.734375 -2 C 1.953125 -1.613281 2.257812 -1.3125 2.65625 -1.09375 C 3.050781 -0.875 3.492188 -0.765625 3.984375 -0.765625 Z M 3.984375 -0.765625 "/></g></g></g><g fill="#7b7b7b" fill-opacity="1"><g transform="translate(258.438142, 63.462679)"><g><path d="M 5.421875 0 L 3.984375 -2.03125 C 3.804688 -2.019531 3.671875 -2.015625 3.578125 -2.015625 L 1.9375 -2.015625 L 1.9375 0 L 1 0 L 1 -6.609375 L 3.578125 -6.609375 C 4.429688 -6.609375 5.101562 -6.40625 5.59375 -6 C 6.082031 -5.59375 6.328125 -5.03125 6.328125 -4.3125 C 6.328125 -3.800781 6.203125 -3.363281 5.953125 -3 C 5.703125 -2.644531 5.34375 -2.382812 4.875 -2.21875 L 6.453125 0 Z M 3.546875 -2.8125 C 4.140625 -2.8125 4.59375 -2.941406 4.90625 -3.203125 C 5.226562 -3.460938 5.390625 -3.832031 5.390625 -4.3125 C 5.390625 -4.789062 5.226562 -5.15625 4.90625 -5.40625 C 4.59375 -5.664062 4.140625 -5.796875 3.546875 -5.796875 L 1.9375 -5.796875 L 1.9375 -2.8125 Z M 3.546875 -2.8125 "/></g></g></g><g fill="#7b7b7b" fill-opacity="1"><g transform="translate(266.549587, 63.462679)"><g><path d="M 2.3125 -5.796875 L 0.03125 -5.796875 L 0.03125 -6.609375 L 5.515625 -6.609375 L 5.515625 -5.796875 L 3.25 -5.796875 L 3.25 0 L 2.3125 0 Z M 2.3125 -5.796875 "/></g></g></g></svg>